<svg width="80" height="80" viewBox="0 0 80 80" fill="none" xmlns="http://www.w3.org/2000/svg">
<path d="M71.6219 66.5625C66.6812 58.025 58.925 52.0344 49.9125 49.4937C54.2942 47.2664 57.798 43.6282 59.8591 39.1659C61.9201 34.7035 62.4182 29.6771 61.273 24.897C60.1278 20.117 57.4061 15.8619 53.5467 12.8179C49.6874 9.77398 44.9153 8.11853 40 8.11853C35.0847 8.11853 30.3126 9.77398 26.4532 12.8179C22.5939 15.8619 19.8722 20.117 18.727 24.897C17.5818 29.6771 18.0799 34.7035 20.1409 39.1659C22.2019 43.6282 25.7058 47.2664 30.0875 49.4937C21.075 52.0312 13.3187 58.0219 8.37811 66.5625C8.24244 66.7759 8.15135 67.0145 8.11031 67.2641C8.06927 67.5136 8.07912 67.7688 8.13929 68.0145C8.19945 68.2601 8.30867 68.491 8.46039 68.6933C8.61211 68.8956 8.80318 69.0651 9.02212 69.1917C9.24105 69.3182 9.48332 69.3992 9.73436 69.4297C9.98539 69.4602 10.24 69.4396 10.4829 69.3691C10.7257 69.2987 10.9518 69.1798 11.1476 69.0197C11.3433 68.8596 11.5046 68.6616 11.6219 68.4375C17.625 58.0656 28.2312 51.875 40 51.875C51.7687 51.875 62.375 58.0656 68.3781 68.4375C68.4953 68.6616 68.6567 68.8596 68.8524 69.0197C69.0481 69.1798 69.2742 69.2987 69.5171 69.3691C69.76 69.4396 70.0146 69.4602 70.2656 69.4297C70.5166 69.3992 70.7589 69.3182 70.9778 69.1917C71.1968 69.0651 71.3879 68.8956 71.5396 68.6933C71.6913 68.491 71.8005 68.2601 71.8607 68.0145C71.9208 67.7688 71.9307 67.5136 71.8897 67.2641C71.8486 67.0145 71.7575 66.7759 71.6219 66.5625ZM21.875 30C21.875 26.4152 22.938 22.9109 24.9296 19.9303C26.9212 16.9496 29.7519 14.6265 33.0638 13.2547C36.3758 11.8828 40.0201 11.5239 43.536 12.2233C47.0519 12.9226 50.2815 14.6488 52.8163 17.1837C55.3511 19.7185 57.0774 22.9481 57.7767 26.464C58.4761 29.9799 58.1171 33.6242 56.7453 36.9361C55.3735 40.248 53.0503 43.0788 50.0697 45.0704C47.0891 47.062 43.5848 48.125 40 48.125C35.1947 48.1192 30.5879 46.2077 27.1901 42.8099C23.7922 39.4121 21.8808 34.8053 21.875 30Z" fill="white"/>
</svg>
