<svg width="80" height="80" viewBox="0 0 80 80" fill="none" xmlns="http://www.w3.org/2000/svg">
<path d="M79.3484 22.1875C79.1192 21.8618 78.815 21.596 78.4615 21.4125C78.108 21.2289 77.7157 21.1329 77.3174 21.1327H24.2599L20.2436 7.28267C18.6686 1.82892 14.926 1.24017 13.391 1.24017H2.68229C1.30971 1.24017 0.199707 2.35142 0.199707 3.72267C0.199707 5.09392 1.31096 6.2051 2.68221 6.2051H13.3897C13.7285 6.2051 14.7622 6.2051 15.4673 8.64135L29.2835 59.4176C29.5835 60.4888 30.5598 61.2288 31.6735 61.2288H65.421C66.4685 61.2288 67.4035 60.5725 67.7573 59.5863L79.6523 24.455C79.926 23.6938 79.8123 22.8463 79.3485 22.1875H79.3484ZM63.6739 56.2652H33.5578L25.6553 26.0989H73.7878L63.6739 56.2652ZM58.7503 66.2602C55.2978 66.2602 52.5003 69.0577 52.5003 72.5102C52.5003 75.9627 55.2978 78.7602 58.7503 78.7602C62.2028 78.7602 65.0003 75.9627 65.0003 72.5102C65.0003 69.0577 62.2028 66.2602 58.7503 66.2602ZM36.2503 66.2602C32.7978 66.2602 30.0003 69.0577 30.0003 72.5102C30.0003 75.9627 32.7978 78.7602 36.2503 78.7602C39.7028 78.7602 42.5003 75.9627 42.5003 72.5102C42.5003 69.0577 39.7028 66.2602 36.2503 66.2602Z" fill="white"/>
</svg>
